<?xml version="1.0" encoding="UTF-8"?>
<!-- Generator: Adobe Illustrator 13.0.2, SVG Export Plug-In . SVG Version: 6.00 Build 14948)  -->
<!DOCTYPE svg PUBLIC "-//W3C//DTD SVG 1.1//EN" "http://www.w3.org/Graphics/SVG/1.1/DTD/svg11.dtd">
<svg version="1.1" xmlns="http://www.w3.org/2000/svg" xmlns:xlink="http://www.w3.org/1999/xlink" x="0px" y="0px" width="1024px" height="613.595px" viewBox="0 0 1024 613.595" enable-background="new 0 0 1024 613.595" xml:space="preserve">
<g id="Layer_3">
</g>
<g id="Flag">
</g>
<g id="Sidebar">
	<rect fill="#002D62" width="1024" height="613.595"/>
	<g>
		<rect x="1.381" y="1.148" fill="#002D62" stroke="#002D62" stroke-width="0.6562" width="566.652" height="283.328"/>
		<path fill="#002D62" stroke="#002D62" stroke-width="0.6562" d="M284.706,142.813"/>
	</g>
	<polygon fill="#FFFFFF" points="221.353,142.803 1.381,32.875 1.381,1.148 64.6,1.124 284.706,111.141 504.816,1.124    568.033,1.148 568.033,32.875 348.146,142.813 568.033,252.747 568.033,284.477 504.754,284.468 284.706,174.479 64.667,284.468    1.381,284.477 1.381,252.747  "/>
	<path fill="#D21242" d="M184.834,113.921L1.377,22.227l0.004-21.07l212.354,106.121l69.66,19.793c0,0,30.171-19.675,30.109-19.793   L525.859,1.157l42.174-0.008L342.406,113.921l-7.854,38.073c0,0,51.156,19.676,50.007,19.694l183.488,91.696l-0.014,21.103   L355.127,178.076l-75.667-15.59c0,0-23.609,15.741-23.03,15.59L43.526,284.487l-42.158-0.04l225.635-112.76   c-1.305,0.018,11.795-36.745,11.795-36.745S185.02,113.955,184.834,113.921z"/>
	<polygon fill="#FFFFFF" points="237.489,95.59 237.489,1.148 331.929,1.148 331.929,95.59 568.033,95.59 568.033,190.032    331.929,190.032 331.929,284.477 237.489,284.477 237.489,190.032 1.381,190.032 1.381,95.59  "/>
	<polyline fill="#D21242" points="312.974,114.544 313.042,1.148 256.375,1.148 256.438,114.544 1.381,114.479 1.381,171.143    256.438,171.078 256.375,284.477 313.042,284.477 312.974,171.078 568.033,171.143 568.033,114.479 312.974,114.544  "/>
	<g>
		<line fill="none" x1="237.489" y1="1.148" x2="331.929" y2="1.148"/>
		<line fill="none" x1="568.033" y1="95.59" x2="568.033" y2="190.032"/>
		<line fill="none" x1="331.929" y1="284.477" x2="237.489" y2="284.477"/>
		<line fill="none" x1="1.381" y1="190.032" x2="1.381" y2="95.59"/>
	</g>
	<g>
		<path fill="#D21242" stroke="#FFFFFF" stroke-width="4.7519" d="M807.588,431.633"/>
		<polygon fill="#D21242" stroke="#FFFFFF" stroke-width="4.7519" points="776.797,474.021 788.556,437.818 757.761,415.442     795.83,415.442 807.588,379.243 819.356,415.444 857.421,415.444 826.624,437.82 838.381,474.023 807.588,451.649   "/>
	</g>
	<g>
		<path fill="#D21242" stroke="#FFFFFF" stroke-width="4.7519" d="M807.588,130.198"/>
		<polygon fill="#D21242" stroke="#FFFFFF" stroke-width="4.7519" points="783.425,163.458 792.658,135.05 768.491,117.494     798.362,117.494 807.588,89.088 816.822,117.496 846.69,117.496 822.529,135.052 831.752,163.46 807.588,145.903   "/>
	</g>
	<g>
		<path fill="#D21242" stroke="#FFFFFF" stroke-width="4.7519" d="M693.127,247.361"/>
		<polygon fill="#D21242" stroke="#FFFFFF" stroke-width="4.7519" points="668.474,281.284 677.887,252.311 653.242,234.401     683.71,234.401 693.127,205.429 702.538,234.403 733.008,234.403 708.357,252.312 717.769,281.289 693.127,263.381   "/>
	</g>
	<g>
		<path fill="#D21242" stroke="#FFFFFF" stroke-width="4.7519" d="M904.797,224.333"/>
		<polygon fill="#D21242" stroke="#FFFFFF" stroke-width="4.7519" points="880.15,258.257 889.563,229.282 864.916,211.374     895.386,211.374 904.797,182.4 914.213,211.375 944.681,211.375 920.033,229.284 929.444,258.261 904.797,240.351   "/>
	</g>
</g>
</svg>